<?xml version="1.0" encoding="utf-8" ?><svg xmlns="http://www.w3.org/2000/svg" xmlns:xlink="http://www.w3.org/1999/xlink" width="301" height="266" viewBox="34 55 243 188"><path fill="#6D28D9" d="M146.787 67.6931C145.2 67.2042 142.845 67.0866 141.203 67.4441C139.382 67.8479 138.396 68.1616 136.819 69.2001C132.205 72.2372 127.635 75.4802 123.096 78.6318L99.247 95.0773L67.1391 117.018C61.7425 120.714 56.2666 124.298 50.9688 128.14C49.1083 129.49 47.1116 130.936 46.5608 133.316C46.142 135.125 47.3083 137.856 49.005 138.651C53.1682 140.602 57.789 141.93 62.1633 143.42C73.249 147.221 84.3617 150.942 95.5005 154.583L133.055 167.446C139.064 169.494 144.902 171.65 150.999 173.457C157.545 175.397 161.517 172.646 166.262 169.359C167.077 168.795 167.915 168.215 168.792 167.64C170.217 166.706 171.628 165.701 173.04 164.734L198.821 147.068C201.296 145.383 206.695 141.352 208.983 140.046C217.177 134.789 225.214 128.96 233.266 123.477C235.83 121.731 238.618 119.858 241.053 117.953C241.775 123.79 243.621 133.871 244.829 139.689C240.805 140.671 238.721 142.427 239.237 146.816C240.133 154.441 241.619 162.057 243.058 169.605C244.193 175.557 249.146 174.56 253.689 173.646C254.871 173.408 256.026 173.176 257.078 173.073C260.621 172.674 265.19 170.817 264.552 166.433C263.399 158.51 262.119 150.432 260.623 142.567C259.813 138.316 256.872 138.144 253.302 138.329C251.54 129.801 250.341 121.439 248.703 112.938C251.261 110.763 253.065 107.432 251.221 104.095C250.989 103.706 250.597 103.109 250.178 102.898C246.099 100.85 241.376 99.5486 237.052 98.1006L217.49 91.4362C201.706 86.0001 185.893 80.6496 170.051 75.3849C162.355 72.8083 154.545 70.0827 146.787 67.6931Z"/><path fill="#A78BFA" d="M146.787 67.6931C145.2 67.2042 142.845 67.0866 141.203 67.4441C141.412 67.4494 141.606 67.4454 141.79 67.4417C142.394 67.4294 142.879 67.4195 143.368 67.7496C142.324 68.6879 140.026 69.8527 139.329 70.921C138.414 72.3251 138.975 76.4229 139.222 78.0732C140.633 87.5061 142.298 96.9177 143.884 106.322C144.573 110.403 145.099 114.599 146.387 118.526C147.014 120.436 149.397 122.319 151.316 122.93C158.963 125.694 166.731 128.18 174.437 130.8L192.329 136.865C195.864 138.055 199.374 139.3 202.995 140.231C204.38 140.588 205.783 140.379 206.989 140.2C207.75 140.087 208.433 139.986 208.983 140.046C217.177 134.789 225.214 128.96 233.266 123.477C235.83 121.731 238.618 119.858 241.053 117.953C241.775 123.79 243.621 133.871 244.829 139.689C240.805 140.671 238.721 142.427 239.237 146.816C240.133 154.441 241.619 162.057 243.058 169.605C244.193 175.557 249.146 174.56 253.689 173.646C254.871 173.408 256.026 173.176 257.078 173.073C260.621 172.674 265.19 170.817 264.552 166.433C263.399 158.51 262.119 150.432 260.623 142.567C259.813 138.316 256.872 138.144 253.302 138.329C251.54 129.801 250.341 121.439 248.703 112.938C251.261 110.763 253.065 107.432 251.221 104.095C250.989 103.706 250.597 103.109 250.178 102.898C246.099 100.85 241.376 99.5486 237.052 98.1006L217.49 91.4362C201.706 86.0001 185.893 80.6496 170.051 75.3849C162.355 72.8083 154.545 70.0827 146.787 67.6931Z"/><path fill="#A78BFA" d="M95.8886 163.792C93.6327 163.016 91.0591 162.132 88.7548 162.261C87.5475 163.199 86.235 164.233 86.0087 165.851C85.5701 168.987 94.211 216.953 95.5983 222.323C96.0749 224.168 96.6041 225.665 97.8095 227.181C99.9038 229.815 102.304 231.284 105.686 231.639C109.786 232.069 115.504 230.963 120.437 230.009C122.021 229.702 123.524 229.411 124.867 229.192L151.071 224.901C153.357 224.566 159.347 223.923 159.993 221.963C161.001 218.902 159.56 211.675 158.633 207.026C158.424 205.979 158.242 205.063 158.119 204.354C157.173 198.892 156.484 193.497 155.224 188.543C154.917 187.33 154.492 186.15 153.954 185.02C153.563 184.176 152.914 183.846 152.116 183.437C150.681 182.701 149.214 182.058 147.687 181.534C130.658 175.689 113.638 169.812 96.5865 164.031C96.3578 163.953 96.1249 163.873 95.8886 163.792Z"/><path fill="#6D28D9" d="M222.759 147.763C222.171 145.533 219.919 144.881 217.885 145.024C215.46 146.02 212.713 148.039 210.469 149.509C205.406 152.826 200.508 156.441 195.515 159.861C188.956 164.313 182.437 168.822 175.957 173.387C173.043 175.423 170.057 177.389 167.205 179.503C164.345 181.623 163.68 183.883 164.143 187.26C165.37 196.236 167.044 205.139 168.527 214.074C169.697 221.215 171.418 221.34 177.991 220.183C188.708 218.534 199.412 216.8 210.102 214.981C213.569 214.385 221.399 213.277 224.295 212.225C226.317 211.481 228.078 210.163 229.36 208.432C232.766 203.77 231.677 197.794 230.677 192.308C230.54 191.556 230.405 190.813 230.283 190.084L225.528 162.221C224.702 157.428 223.998 152.454 222.759 147.763Z"/></svg>
